# Generated from SOFA Simulation
mtllib VonMisesStress_CUDA_00000.mtl
g 3_
usemtl mat1
v -10.000000 -0.500000 -10.000000
v 10.000000 -0.500000 -10.000000
v -10.000000 0.000000 -10.000000
v 10.000000 0.000000 -10.000000
v -10.000000 -0.500000 10.000000
v 10.000000 -0.500000 10.000000
v -10.000000 0.000000 10.000000
v 10.000000 0.000000 10.000000
vn 0.024984 -0.999376 0.024984
vn 0.037462 -0.998986 0.024975
vn 0.016662 -0.999722 0.016662
vn 0.024975 -0.998986 0.037462
vn 0.024975 -0.998986 0.037462
vn 0.016662 -0.999722 0.016662
vn 0.037462 -0.998986 0.024975
vn 0.024984 -0.999376 0.024984
vt 0.003978 0.749950
vt 0.496022 0.749950
vt 0.996022 0.749950
vt 0.503978 0.749950
vt 0.003978 0.250050
vt 0.496022 0.250050
vt 0.996022 0.250050
vt 0.503978 0.250050
f 1/1/1 2/2/2 4/4/4
f 1/1/1 4/4/4 3/3/3
f 5/5/5 6/6/6 8/8/8
f 5/5/5 8/8/8 7/7/7
f 1/1/1 2/2/2 6/6/6
f 1/1/1 6/6/6 5/5/5
f 3/3/3 4/4/4 8/8/8
f 3/3/3 8/8/8 7/7/7
f 1/1/1 3/3/3 7/7/7
f 1/1/1 7/7/7 5/5/5
f 2/2/2 4/4/4 8/8/8
f 2/2/2 8/8/8 6/6/6
f 1/1/1 2/2/2 4/4/4 3/3/3
f 5/5/5 6/6/6 8/8/8 7/7/7
f 1/1/1 2/2/2 6/6/6 5/5/5
f 3/3/3 4/4/4 8/8/8 7/7/7
f 1/1/1 3/3/3 7/7/7 5/5/5
f 2/2/2 4/4/4 8/8/8 6/6/6
